<mxfile host="app.diagrams.net" modified="2023-09-20T07:39:34.869Z" agent="Mozilla/5.0 (Windows NT 10.0; Win64; x64) AppleWebKit/537.36 (KHTML, like Gecko) Chrome/114.0.0.0 Safari/537.36 Edg/114.0.1823.67" etag="jtBdCv2Syj5N5TlOfCfF" version="21.7.5" type="device">
  <diagram name="Page-1" id="4LUnUNtuVUE-3LGlvO12">
    <mxGraphModel dx="834" dy="468" grid="1" gridSize="10" guides="1" tooltips="1" connect="1" arrows="1" fold="1" page="1" pageScale="1" pageWidth="827" pageHeight="1169" math="0" shadow="0">
      <root>
        <mxCell id="0" />
        <mxCell id="1" parent="0" />
        <mxCell id="XWqJTuSfiRD4DILUTire-12" value="" style="edgeStyle=orthogonalEdgeStyle;rounded=0;orthogonalLoop=1;jettySize=auto;html=1;" edge="1" parent="1" source="XWqJTuSfiRD4DILUTire-1" target="XWqJTuSfiRD4DILUTire-2">
          <mxGeometry relative="1" as="geometry" />
        </mxCell>
        <mxCell id="XWqJTuSfiRD4DILUTire-1" value="INIT" style="ellipse;whiteSpace=wrap;html=1;aspect=fixed;" vertex="1" parent="1">
          <mxGeometry x="140" y="120" width="80" height="80" as="geometry" />
        </mxCell>
        <mxCell id="XWqJTuSfiRD4DILUTire-5" style="edgeStyle=orthogonalEdgeStyle;rounded=0;orthogonalLoop=1;jettySize=auto;html=1;exitX=1;exitY=0.5;exitDx=0;exitDy=0;entryX=0.5;entryY=0;entryDx=0;entryDy=0;" edge="1" parent="1" source="XWqJTuSfiRD4DILUTire-2" target="XWqJTuSfiRD4DILUTire-3">
          <mxGeometry relative="1" as="geometry" />
        </mxCell>
        <mxCell id="XWqJTuSfiRD4DILUTire-10" value="New data in&lt;br&gt;TX FIFO" style="edgeLabel;html=1;align=center;verticalAlign=middle;resizable=0;points=[];" vertex="1" connectable="0" parent="XWqJTuSfiRD4DILUTire-5">
          <mxGeometry x="-0.2604" y="2" relative="1" as="geometry">
            <mxPoint x="46" y="12" as="offset" />
          </mxGeometry>
        </mxCell>
        <mxCell id="XWqJTuSfiRD4DILUTire-7" style="edgeStyle=orthogonalEdgeStyle;rounded=0;orthogonalLoop=1;jettySize=auto;html=1;exitX=0;exitY=0.5;exitDx=0;exitDy=0;entryX=0.5;entryY=0;entryDx=0;entryDy=0;" edge="1" parent="1" source="XWqJTuSfiRD4DILUTire-2" target="XWqJTuSfiRD4DILUTire-6">
          <mxGeometry relative="1" as="geometry" />
        </mxCell>
        <mxCell id="XWqJTuSfiRD4DILUTire-2" value="IDLE" style="ellipse;whiteSpace=wrap;html=1;aspect=fixed;" vertex="1" parent="1">
          <mxGeometry x="140" y="240" width="80" height="80" as="geometry" />
        </mxCell>
        <mxCell id="XWqJTuSfiRD4DILUTire-8" style="edgeStyle=orthogonalEdgeStyle;rounded=0;orthogonalLoop=1;jettySize=auto;html=1;exitX=0;exitY=0.5;exitDx=0;exitDy=0;entryX=0.5;entryY=1;entryDx=0;entryDy=0;" edge="1" parent="1" source="XWqJTuSfiRD4DILUTire-3" target="XWqJTuSfiRD4DILUTire-2">
          <mxGeometry relative="1" as="geometry" />
        </mxCell>
        <mxCell id="XWqJTuSfiRD4DILUTire-13" value="*X FIFO&lt;br&gt;is EMPTY" style="edgeLabel;html=1;align=center;verticalAlign=middle;resizable=0;points=[];" vertex="1" connectable="0" parent="XWqJTuSfiRD4DILUTire-8">
          <mxGeometry x="-0.2454" y="1" relative="1" as="geometry">
            <mxPoint x="-14" y="19" as="offset" />
          </mxGeometry>
        </mxCell>
        <mxCell id="XWqJTuSfiRD4DILUTire-3" value="TRANSMIT" style="ellipse;whiteSpace=wrap;html=1;aspect=fixed;" vertex="1" parent="1">
          <mxGeometry x="240" y="340" width="80" height="80" as="geometry" />
        </mxCell>
        <mxCell id="XWqJTuSfiRD4DILUTire-9" style="edgeStyle=orthogonalEdgeStyle;rounded=0;orthogonalLoop=1;jettySize=auto;html=1;exitX=1;exitY=0.5;exitDx=0;exitDy=0;entryX=0.5;entryY=1;entryDx=0;entryDy=0;" edge="1" parent="1" source="XWqJTuSfiRD4DILUTire-6" target="XWqJTuSfiRD4DILUTire-2">
          <mxGeometry relative="1" as="geometry" />
        </mxCell>
        <mxCell id="XWqJTuSfiRD4DILUTire-6" value="RECEIVE" style="ellipse;whiteSpace=wrap;html=1;aspect=fixed;" vertex="1" parent="1">
          <mxGeometry x="40" y="340" width="80" height="80" as="geometry" />
        </mxCell>
        <mxCell id="XWqJTuSfiRD4DILUTire-11" value="New data in&lt;br&gt;RX FIFO" style="edgeLabel;html=1;align=center;verticalAlign=middle;resizable=0;points=[];" vertex="1" connectable="0" parent="1">
          <mxGeometry x="39.997931034482804" y="290" as="geometry" />
        </mxCell>
      </root>
    </mxGraphModel>
  </diagram>
</mxfile>
